<svg xmlns="http://www.w3.org/2000/svg" xmlns:xlink="http://www.w3.org/1999/xlink" width="500" zoomAndPan="magnify" viewBox="0 0 375 374.999991" height="500" preserveAspectRatio="xMidYMid meet" version="1.0"><defs><clipPath id="1424000f3b"><path d="M 19.707031 32 L 365.457031 32 L 365.457031 347.71875 L 19.707031 347.71875 Z M 19.707031 32 " clip-rule="nonzero"/></clipPath></defs><g clip-path="url(#1424000f3b)"><path fill="#ffffff" d="M 299.117188 137.011719 L 278.617188 137.011719 L 278.617188 32.265625 L 227.25 85.445312 L 192.46875 33.414062 L 157.6875 85.445312 L 106.089844 32.265625 L 106.089844 137.242188 L 85.585938 137.242188 C 49.421875 137.011719 19.707031 166.707031 19.707031 203.082031 L 19.707031 281.355469 C 19.707031 317.726562 49.421875 347.425781 85.816406 347.425781 L 299.347656 347.425781 C 335.742188 347.425781 365.457031 317.726562 365.457031 281.355469 L 365.457031 203.082031 C 365.226562 166.707031 335.511719 137.011719 299.117188 137.011719 Z M 354.171875 281.355469 C 354.171875 311.511719 329.523438 336.144531 299.347656 336.144531 L 238.539062 336.144531 L 238.539062 330.390625 C 238.539062 323.023438 232.546875 317.035156 224.945312 317.035156 L 159.988281 317.035156 C 152.617188 317.035156 146.398438 323.023438 146.398438 330.390625 L 146.398438 336.144531 L 85.816406 336.144531 C 55.640625 336.144531 30.996094 311.511719 30.996094 281.355469 L 30.996094 203.082031 C 30.996094 172.925781 55.640625 148.292969 85.816406 148.292969 L 110.003906 148.292969 L 110.003906 148.523438 L 146.398438 148.523438 L 146.398438 150.132812 C 146.398438 157.5 152.386719 163.714844 159.988281 163.714844 L 225.175781 163.714844 C 232.546875 163.714844 238.769531 157.730469 238.769531 150.132812 L 238.769531 148.523438 L 275.164062 148.523438 L 275.164062 148.292969 L 299.347656 148.292969 C 329.523438 148.292969 354.171875 172.925781 354.171875 203.082031 Z M 354.171875 281.355469 " fill-opacity="1" fill-rule="nonzero"/></g><path fill="#ffffff" d="M 149.164062 223.339844 L 135.113281 223.339844 C 131.886719 223.339844 129.351562 220.808594 129.351562 217.585938 L 129.351562 203.542969 C 129.351562 200.320312 126.820312 197.785156 123.59375 197.785156 L 97.335938 197.785156 C 94.109375 197.785156 91.578125 200.320312 91.578125 203.542969 L 91.578125 217.585938 C 91.578125 220.808594 89.042969 223.339844 85.816406 223.339844 L 71.765625 223.339844 C 68.542969 223.339844 66.007812 225.871094 66.007812 229.097656 L 66.007812 255.339844 C 66.007812 258.5625 68.542969 261.09375 71.765625 261.09375 L 85.816406 261.09375 C 89.042969 261.09375 91.578125 263.628906 91.578125 266.851562 L 91.578125 280.894531 C 91.578125 284.117188 94.109375 286.648438 97.335938 286.648438 L 123.59375 286.648438 C 126.820312 286.648438 129.351562 284.117188 129.351562 280.894531 L 129.351562 266.851562 C 129.351562 263.628906 131.886719 261.09375 135.113281 261.09375 L 149.164062 261.09375 C 152.386719 261.09375 154.921875 258.5625 154.921875 255.339844 L 154.921875 229.097656 C 154.691406 225.871094 152.15625 223.339844 149.164062 223.339844 Z M 149.164062 223.339844 " fill-opacity="1" fill-rule="nonzero"/><path fill="#ffffff" d="M 269.402344 198.015625 C 262.722656 198.015625 257.425781 203.3125 257.425781 209.988281 C 257.425781 216.664062 262.722656 221.960938 269.402344 221.960938 C 276.082031 221.960938 281.382812 216.664062 281.382812 209.988281 C 281.382812 203.3125 276.082031 198.015625 269.402344 198.015625 Z M 269.402344 198.015625 " fill-opacity="1" fill-rule="nonzero"/><path fill="#ffffff" d="M 269.402344 262.476562 C 262.722656 262.476562 257.425781 267.773438 257.425781 274.449219 C 257.425781 281.125 262.722656 286.417969 269.402344 286.417969 C 276.082031 286.417969 281.382812 281.125 281.382812 274.449219 C 281.382812 267.773438 276.082031 262.476562 269.402344 262.476562 Z M 269.402344 262.476562 " fill-opacity="1" fill-rule="nonzero"/><path fill="#ffffff" d="M 313.628906 242.21875 C 313.628906 243.003906 313.554688 243.78125 313.398438 244.554688 C 313.246094 245.324219 313.019531 246.074219 312.71875 246.800781 C 312.417969 247.523438 312.046875 248.214844 311.613281 248.867188 C 311.175781 249.523438 310.679688 250.128906 310.121094 250.683594 C 309.566406 251.238281 308.960938 251.734375 308.308594 252.171875 C 307.652344 252.609375 306.960938 252.976562 306.234375 253.277344 C 305.507812 253.578125 304.761719 253.804688 303.988281 253.960938 C 303.21875 254.113281 302.4375 254.1875 301.652344 254.1875 C 300.867188 254.1875 300.085938 254.113281 299.316406 253.960938 C 298.542969 253.804688 297.796875 253.578125 297.070312 253.277344 C 296.34375 252.976562 295.652344 252.609375 294.996094 252.171875 C 294.34375 251.734375 293.738281 251.238281 293.183594 250.683594 C 292.625 250.128906 292.128906 249.523438 291.691406 248.867188 C 291.257812 248.214844 290.886719 247.523438 290.585938 246.800781 C 290.285156 246.074219 290.058594 245.324219 289.90625 244.554688 C 289.75 243.78125 289.675781 243.003906 289.675781 242.21875 C 289.675781 241.433594 289.75 240.652344 289.90625 239.882812 C 290.058594 239.113281 290.285156 238.363281 290.585938 237.636719 C 290.886719 236.910156 291.257812 236.222656 291.691406 235.566406 C 292.128906 234.914062 292.625 234.308594 293.183594 233.753906 C 293.738281 233.199219 294.34375 232.703125 294.996094 232.265625 C 295.652344 231.828125 296.34375 231.460938 297.070312 231.160156 C 297.796875 230.859375 298.542969 230.628906 299.316406 230.476562 C 300.085938 230.324219 300.867188 230.246094 301.652344 230.246094 C 302.4375 230.246094 303.21875 230.324219 303.988281 230.476562 C 304.761719 230.628906 305.507812 230.859375 306.234375 231.160156 C 306.960938 231.460938 307.652344 231.828125 308.308594 232.265625 C 308.960938 232.703125 309.566406 233.199219 310.121094 233.753906 C 310.679688 234.308594 311.175781 234.914062 311.613281 235.566406 C 312.046875 236.222656 312.417969 236.910156 312.71875 237.636719 C 313.019531 238.363281 313.246094 239.113281 313.398438 239.882812 C 313.554688 240.652344 313.628906 241.433594 313.628906 242.21875 Z M 313.628906 242.21875 " fill-opacity="1" fill-rule="nonzero"/><path fill="#ffffff" d="M 237.15625 230.246094 C 230.476562 230.246094 225.175781 235.542969 225.175781 242.21875 C 225.175781 248.894531 230.476562 254.1875 237.15625 254.1875 C 243.835938 254.1875 249.132812 248.894531 249.132812 242.21875 C 249.132812 235.542969 243.835938 230.246094 237.15625 230.246094 Z M 237.15625 230.246094 " fill-opacity="1" fill-rule="nonzero"/></svg>