<svg width="1103" height="383" viewBox="0 0 1103 383" fill="none" xmlns="http://www.w3.org/2000/svg">
<g clip-path="url(#clip0_96_1370)">
<mask id="mask0_96_1370" style="mask-type:luminance" maskUnits="userSpaceOnUse" x="31" y="28" width="369" height="336">
<path d="M31.9517 28.4302H399.723V363.88H31.9517V28.4302Z" fill="white"/>
</mask>
<g mask="url(#mask0_96_1370)">
<path d="M329.158 139.849H307.351V28.4758L252.713 85.0196L215.715 29.6999L178.718 85.0196L123.833 28.4758V140.092H102.027C63.5583 139.849 31.9517 171.424 31.9517 210.098V293.32C31.9517 331.997 63.5583 363.572 102.271 363.572H329.403C368.116 363.572 399.723 331.997 399.723 293.32V210.098C399.478 171.424 367.872 139.849 329.158 139.849ZM387.718 293.32C387.718 325.386 361.5 351.578 329.403 351.578H264.719V345.459C264.719 337.626 258.347 331.261 250.262 331.261H181.166C173.327 331.261 166.712 337.626 166.712 345.459V351.578H102.271C70.1743 351.578 43.9562 325.386 43.9562 293.32V210.098C43.9562 178.033 70.1743 151.842 102.271 151.842H127.999V152.087H166.712V153.799C166.712 161.634 173.082 168.243 181.166 168.243H250.508C258.347 168.243 264.963 161.877 264.963 153.799V152.087H303.675V151.842H329.403C361.5 151.842 387.718 178.033 387.718 210.098V293.32Z" fill="#5A3EF7"/>
</g>
<path d="M169.651 231.638H154.704C151.274 231.638 148.58 228.947 148.58 225.52V210.589C148.58 207.162 145.884 204.468 142.454 204.468H114.523C111.091 204.468 108.397 207.162 108.397 210.589V225.52C108.397 228.947 105.703 231.638 102.271 231.638H87.3258C83.8959 231.638 81.1995 234.331 81.1995 237.758V265.663C81.1995 269.089 83.8959 271.781 87.3258 271.781H102.271C105.703 271.781 108.397 274.474 108.397 277.901V292.833C108.397 296.26 111.091 298.953 114.523 298.953H142.454C145.884 298.953 148.58 296.26 148.58 292.833V277.901C148.58 274.474 151.274 271.781 154.704 271.781H169.651C173.082 271.781 175.777 269.089 175.777 265.663V237.758C175.532 234.331 172.837 231.638 169.651 231.638Z" fill="#5A3EF7"/>
<path d="M297.551 204.713C290.445 204.713 284.811 210.343 284.811 217.442C284.811 224.541 290.445 230.17 297.551 230.17C304.657 230.17 310.291 224.541 310.291 217.442C310.291 210.343 304.657 204.713 297.551 204.713Z" fill="#5A3EF7"/>
<path d="M297.551 273.249C290.445 273.249 284.811 278.878 284.811 285.977C284.811 293.076 290.445 298.705 297.551 298.705C304.657 298.705 310.291 293.076 310.291 285.977C310.291 278.878 304.657 273.249 297.551 273.249Z" fill="#5A3EF7"/>
<path d="M344.594 251.709C344.594 252.125 344.574 252.542 344.533 252.956C344.493 253.373 344.431 253.782 344.35 254.192C344.268 254.6 344.167 255.004 344.047 255.404C343.924 255.802 343.784 256.195 343.625 256.581C343.464 256.964 343.286 257.341 343.09 257.71C342.894 258.077 342.679 258.433 342.448 258.779C342.216 259.128 341.966 259.461 341.701 259.783C341.437 260.106 341.158 260.413 340.863 260.71C340.567 261.005 340.259 261.283 339.937 261.549C339.613 261.812 339.278 262.06 338.931 262.293C338.585 262.524 338.228 262.738 337.859 262.934C337.491 263.132 337.115 263.309 336.729 263.467C336.344 263.628 335.951 263.768 335.553 263.89C335.152 264.009 334.749 264.112 334.339 264.192C333.931 264.273 333.517 264.335 333.102 264.376C332.687 264.418 332.272 264.438 331.854 264.438C331.437 264.438 331.019 264.418 330.604 264.376C330.189 264.335 329.778 264.273 329.369 264.192C328.959 264.112 328.555 264.009 328.155 263.89C327.755 263.768 327.362 263.628 326.978 263.467C326.592 263.309 326.215 263.132 325.848 262.934C325.48 262.738 325.122 262.524 324.775 262.293C324.428 262.06 324.093 261.812 323.772 261.549C323.449 261.283 323.139 261.005 322.844 260.71C322.55 260.413 322.269 260.106 322.005 259.783C321.741 259.461 321.493 259.128 321.258 258.779C321.028 258.433 320.814 258.077 320.616 257.71C320.42 257.341 320.242 256.964 320.083 256.581C319.922 256.195 319.782 255.802 319.661 255.404C319.54 255.004 319.438 254.6 319.358 254.192C319.275 253.782 319.215 253.373 319.174 252.956C319.133 252.542 319.112 252.125 319.112 251.709C319.112 251.293 319.133 250.877 319.174 250.461C319.215 250.046 319.275 249.635 319.358 249.226C319.438 248.816 319.54 248.413 319.661 248.014C319.782 247.615 319.922 247.224 320.083 246.838C320.242 246.453 320.42 246.076 320.616 245.709C320.814 245.342 321.028 244.983 321.258 244.638C321.493 244.291 321.741 243.957 322.005 243.633C322.269 243.312 322.55 243.003 322.844 242.709C323.139 242.414 323.449 242.133 323.772 241.87C324.093 241.606 324.428 241.356 324.775 241.126C325.122 240.895 325.48 240.681 325.848 240.483C326.215 240.288 326.592 240.11 326.978 239.949C327.362 239.791 327.755 239.65 328.155 239.529C328.555 239.408 328.959 239.307 329.369 239.226C329.778 239.143 330.189 239.084 330.604 239.043C331.019 239.001 331.437 238.981 331.854 238.981C332.272 238.981 332.687 239.001 333.102 239.043C333.517 239.084 333.931 239.143 334.339 239.226C334.749 239.307 335.152 239.408 335.553 239.529C335.951 239.65 336.344 239.791 336.729 239.949C337.115 240.11 337.491 240.288 337.859 240.483C338.228 240.681 338.585 240.895 338.931 241.126C339.278 241.356 339.613 241.606 339.937 241.87C340.259 242.133 340.567 242.414 340.863 242.709C341.158 243.003 341.437 243.312 341.701 243.633C341.966 243.957 342.216 244.291 342.448 244.638C342.679 244.983 342.894 245.342 343.09 245.709C343.286 246.076 343.464 246.453 343.625 246.838C343.784 247.224 343.924 247.615 344.047 248.014C344.167 248.413 344.268 248.816 344.35 249.226C344.431 249.635 344.493 250.046 344.533 250.461C344.574 250.877 344.594 251.293 344.594 251.709Z" fill="#5A3EF7"/>
<path d="M263.248 238.981C256.142 238.981 250.508 244.61 250.508 251.709C250.508 258.808 256.142 264.438 263.248 264.438C270.354 264.438 275.988 258.808 275.988 251.709C275.988 244.61 270.354 238.981 263.248 238.981Z" fill="#5A3EF7"/>
<mask id="mask1_96_1370" style="mask-type:luminance" maskUnits="userSpaceOnUse" x="21" y="23" width="369" height="336">
<path d="M21.3003 23.1538H389.071V358.658H21.3003V23.1538Z" fill="white"/>
</mask>
<g mask="url(#mask1_96_1370)">
<path d="M318.506 134.836H296.7V23.4634L242.061 80.0071L205.064 24.6873L168.064 80.0071L113.182 23.4634V135.081H91.3757C52.9069 134.836 21.3003 166.412 21.3003 205.087V288.31C21.3003 326.985 52.9069 358.559 91.6191 358.559H318.752C357.464 358.559 389.071 326.985 389.071 288.31V205.087C388.827 166.412 357.219 134.836 318.506 134.836ZM377.066 288.31C377.066 320.376 350.849 346.566 318.752 346.566H254.065V340.446C254.065 332.614 247.695 326.25 239.611 326.25H170.515C162.676 326.25 156.06 332.614 156.06 340.446V346.566H91.6191C59.5229 346.566 33.3049 320.376 33.3049 288.31V205.087C33.3049 173.022 59.5229 146.83 91.6191 146.83H117.347V147.075H156.06V148.789C156.06 156.622 162.43 163.23 170.515 163.23H239.857C247.695 163.23 254.312 156.867 254.312 148.789V147.075H293.024V146.83H318.752C350.849 146.83 377.066 173.022 377.066 205.087V288.31Z" fill="#FF66C4"/>
</g>
<path d="M159 226.628H144.054C140.623 226.628 137.929 223.936 137.929 220.509V205.577C137.929 202.15 135.232 199.457 131.803 199.457H103.87C100.44 199.457 97.746 202.15 97.746 205.577V220.509C97.746 223.936 95.0495 226.628 91.6193 226.628H76.6745C73.2427 226.628 70.5483 229.319 70.5483 232.746V260.652C70.5483 264.078 73.2427 266.771 76.6745 266.771H91.6193C95.0495 266.771 97.746 269.462 97.746 272.889V287.821C97.746 291.248 100.44 293.941 103.87 293.941H131.803C135.232 293.941 137.929 291.248 137.929 287.821V272.889C137.929 269.462 140.623 266.771 144.054 266.771H159C162.43 266.771 165.125 264.078 165.125 260.652V232.746C164.88 229.319 162.184 226.628 159 226.628Z" fill="#FF66C4"/>
<path d="M286.899 199.702C279.794 199.702 274.157 205.332 274.157 212.43C274.157 219.529 279.794 225.158 286.899 225.158C294.005 225.158 299.64 219.529 299.64 212.43C299.64 205.332 294.005 199.702 286.899 199.702Z" fill="#FF66C4"/>
<path d="M286.899 268.237C279.794 268.237 274.157 273.867 274.157 280.966C274.157 288.064 279.794 293.694 286.899 293.694C294.005 293.694 299.64 288.064 299.64 280.966C299.64 273.867 294.005 268.237 286.899 268.237Z" fill="#FF66C4"/>
<path d="M333.943 246.698C333.943 247.116 333.923 247.53 333.881 247.947C333.84 248.361 333.78 248.773 333.697 249.181C333.617 249.591 333.515 249.995 333.393 250.393C333.274 250.792 333.133 251.184 332.972 251.569C332.813 251.955 332.635 252.331 332.439 252.699C332.243 253.065 332.028 253.424 331.796 253.77C331.563 254.116 331.315 254.45 331.051 254.773C330.786 255.095 330.507 255.404 330.212 255.699C329.917 255.994 329.608 256.274 329.284 256.538C328.961 256.802 328.627 257.05 328.279 257.281C327.933 257.512 327.575 257.726 327.207 257.924C326.84 258.12 326.464 258.297 326.077 258.458C325.693 258.617 325.3 258.757 324.901 258.879C324.501 259 324.098 259.101 323.689 259.182C323.278 259.264 322.866 259.326 322.451 259.365C322.036 259.406 321.619 259.427 321.203 259.427C320.785 259.427 320.368 259.406 319.953 259.365C319.537 259.326 319.126 259.264 318.717 259.182C318.306 259.101 317.903 259 317.505 258.879C317.104 258.757 316.711 258.617 316.327 258.458C315.94 258.297 315.564 258.12 315.197 257.924C314.829 257.726 314.471 257.512 314.125 257.281C313.777 257.05 313.443 256.802 313.12 256.538C312.797 256.274 312.487 255.994 312.192 255.699C311.897 255.404 311.618 255.095 311.353 254.773C311.089 254.45 310.841 254.116 310.608 253.77C310.376 253.424 310.161 253.065 309.965 252.699C309.769 252.331 309.591 251.955 309.432 251.569C309.27 251.184 309.13 250.792 309.011 250.393C308.888 249.995 308.787 249.591 308.707 249.181C308.624 248.773 308.564 248.361 308.523 247.947C308.481 247.53 308.461 247.116 308.461 246.698C308.461 246.282 308.481 245.866 308.523 245.451C308.564 245.035 308.624 244.625 308.707 244.214C308.787 243.807 308.888 243.403 309.011 243.003C309.13 242.606 309.27 242.212 309.432 241.827C309.591 241.441 309.769 241.067 309.965 240.697C310.161 240.331 310.376 239.974 310.608 239.626C310.841 239.28 311.089 238.946 311.353 238.625C311.618 238.301 311.897 237.993 312.192 237.697C312.487 237.403 312.797 237.124 313.12 236.858C313.443 236.595 313.777 236.347 314.125 236.115C314.471 235.884 314.829 235.67 315.197 235.474C315.564 235.276 315.94 235.099 316.327 234.94C316.711 234.779 317.104 234.639 317.505 234.517C317.903 234.398 318.306 234.295 318.715 234.215C319.126 234.134 319.537 234.072 319.953 234.031C320.368 233.99 320.785 233.969 321.203 233.969C321.619 233.969 322.036 233.99 322.451 234.031C322.866 234.072 323.278 234.134 323.689 234.215C324.098 234.295 324.501 234.398 324.901 234.517C325.3 234.639 325.693 234.779 326.077 234.94C326.464 235.099 326.84 235.276 327.207 235.474C327.575 235.67 327.933 235.884 328.279 236.115C328.627 236.347 328.961 236.595 329.284 236.858C329.608 237.124 329.917 237.403 330.212 237.697C330.507 237.993 330.786 238.301 331.051 238.625C331.315 238.946 331.563 239.28 331.796 239.626C332.028 239.974 332.243 240.331 332.439 240.697C332.635 241.067 332.813 241.441 332.972 241.827C333.133 242.212 333.274 242.606 333.393 243.003C333.515 243.403 333.617 243.807 333.697 244.214C333.78 244.625 333.84 245.035 333.881 245.451C333.923 245.866 333.943 246.282 333.943 246.698Z" fill="#FF66C4"/>
<path d="M252.597 233.969C245.491 233.969 239.857 239.599 239.857 246.698C239.857 253.797 245.491 259.427 252.597 259.427C259.703 259.427 265.337 253.797 265.337 246.698C265.337 239.599 259.703 233.969 252.597 233.969Z" fill="#FF66C4"/>
<mask id="mask2_96_1370" style="mask-type:luminance" maskUnits="userSpaceOnUse" x="455" y="141" width="648" height="220">
<path d="M1103 141.345H455.785V360.202H1103V141.345Z" fill="white"/>
</mask>
<g mask="url(#mask2_96_1370)">
<path d="M485.303 256.288H545.077C564.574 256.288 578.763 242.064 578.763 222.522V219.935C578.763 200.397 564.574 186.174 545.077 186.174H516.408C511.251 186.174 507.091 182.003 507.091 176.834C507.091 171.516 511.251 167.35 516.408 167.35H569.158C574.608 167.35 578.763 163.185 578.763 157.722V150.969C578.763 145.511 574.608 141.345 569.158 141.345H509.387C489.892 141.345 475.701 155.569 475.701 175.107V177.549C475.701 197.091 489.892 211.315 509.387 211.315H537.912C543.214 211.315 547.37 215.625 547.37 220.799C547.37 226.113 543.214 230.282 537.912 230.282H485.303C479.857 230.282 475.701 234.448 475.701 239.907V246.659C475.701 252.122 479.857 256.288 485.303 256.288Z" fill="#5A3EF7"/>
<path d="M607.279 256.288H691.278C696.725 256.288 700.884 252.122 700.884 246.659V239.907C700.884 234.448 696.725 230.282 691.278 230.282H638.384C633.228 230.282 629.067 226.113 629.067 220.799C629.067 215.625 633.228 211.315 638.384 211.315H685.544C690.85 211.315 695.15 207.149 695.15 201.546V195.798C695.15 190.339 690.994 186.174 685.544 186.174H638.384C633.228 186.174 629.067 182.003 629.067 176.834C629.067 171.516 633.228 167.35 638.384 167.35H691.278C696.725 167.35 700.884 163.185 700.884 157.722V150.969C700.884 145.511 696.725 141.345 691.278 141.345H607.279C601.833 141.345 597.677 145.511 597.677 150.969V246.659C597.677 252.122 601.833 256.288 607.279 256.288Z" fill="#5A3EF7"/>
<path d="M784.153 256.288H839.339C844.79 256.288 848.945 252.122 848.945 246.659V239.907C848.945 234.448 844.79 230.282 839.339 230.282H815.258C809.957 230.282 805.941 225.973 805.941 220.799V150.969C805.941 145.511 801.786 141.345 796.34 141.345H784.153C778.707 141.345 774.551 145.511 774.551 150.969V246.659C774.551 252.122 778.707 256.288 784.153 256.288Z" fill="#5A3EF7"/>
<path d="M877.463 256.288H889.65C895.096 256.288 899.251 252.122 899.251 246.659V150.969C899.251 145.511 895.096 141.345 889.65 141.345H877.463C872.017 141.345 867.861 145.511 867.861 150.969V246.659C867.861 252.122 872.017 256.288 877.463 256.288Z" fill="#5A3EF7"/>
<path d="M953.284 256.288H990.129C995.425 256.288 999.728 252.263 999.728 246.659V197.381C999.728 191.777 995.717 187.607 990.275 187.607H978.087C972.782 187.607 968.343 191.487 968.343 197.236V220.799C968.343 226.113 964.04 230.282 958.881 230.282C953.721 230.282 949.564 226.113 949.564 220.799V176.834C949.564 171.516 953.721 167.35 958.881 167.35H990.129C995.425 167.35 999.728 163.326 999.728 157.866V150.969C999.728 145.511 995.571 141.345 990.129 141.345H953.284C932.937 141.345 918.17 156.144 918.17 176.545V221.088C918.17 241.49 932.937 256.288 953.284 256.288Z" fill="#5A3EF7"/>
<path d="M1028.25 256.288H1040.44C1045.88 256.288 1050.04 252.122 1050.04 246.659V229.708C1050.04 224.39 1054.19 220.224 1059.35 220.224C1064.66 220.224 1068.82 224.39 1068.82 229.564V246.659C1068.82 252.122 1072.97 256.288 1078.42 256.288H1090.6C1096.05 256.288 1100.21 252.122 1100.21 246.659V176.545C1100.21 156.144 1085.44 141.345 1065.09 141.345H1053.77C1033.41 141.345 1018.65 156.144 1018.65 176.545V246.659C1018.65 252.122 1022.8 256.288 1028.25 256.288ZM1059.35 201.256C1054.19 201.256 1050.04 197.091 1050.04 191.918V176.834C1050.04 171.516 1054.19 167.35 1059.35 167.35C1064.66 167.35 1068.82 171.516 1068.82 176.834V191.918C1068.82 197.091 1064.66 201.256 1059.35 201.256Z" fill="#5A3EF7"/>
<path d="M465.387 256.288H525.161C544.658 256.288 558.847 242.064 558.847 222.522V219.935C558.847 200.397 544.658 186.174 525.161 186.174H496.492C491.335 186.174 487.175 182.003 487.175 176.834C487.175 171.516 491.335 167.35 496.492 167.35H549.242C554.692 167.35 558.847 163.185 558.847 157.722V150.969C558.847 145.511 554.692 141.345 549.242 141.345H489.471C469.976 141.345 455.785 155.569 455.785 175.107V177.549C455.785 197.091 469.976 211.315 489.471 211.315H517.996C523.298 211.315 527.454 215.625 527.454 220.799C527.454 226.113 523.298 230.282 517.996 230.282H465.387C459.941 230.282 455.785 234.448 455.785 239.907V246.659C455.785 252.122 459.941 256.288 465.387 256.288Z" fill="white"/>
<path d="M587.364 256.288H671.363C676.809 256.288 680.968 252.122 680.968 246.659V239.907C680.968 234.448 676.809 230.282 671.363 230.282H618.469C613.312 230.282 609.152 226.113 609.152 220.799C609.152 215.625 613.312 211.315 618.469 211.315H665.628C670.934 211.315 675.234 207.149 675.234 201.546V195.798C675.234 190.339 671.079 186.174 665.628 186.174H618.469C613.312 186.174 609.152 182.003 609.152 176.834C609.152 171.516 613.312 167.35 618.469 167.35H671.363C676.809 167.35 680.968 163.185 680.968 157.722V150.969C680.968 145.511 676.809 141.345 671.363 141.345H587.364C581.917 141.345 577.762 145.511 577.762 150.969V246.659C577.762 252.122 581.917 256.288 587.364 256.288Z" fill="white"/>
<path d="M764.237 256.288H819.423C824.874 256.288 829.028 252.122 829.028 246.659V239.907C829.028 234.448 824.874 230.282 819.423 230.282H795.342C790.041 230.282 786.025 225.973 786.025 220.799V150.969C786.025 145.511 781.869 141.345 776.424 141.345H764.237C758.791 141.345 754.635 145.511 754.635 150.969V246.659C754.635 252.122 758.791 256.288 764.237 256.288Z" fill="white"/>
<path d="M857.547 256.288H869.734C875.18 256.288 879.335 252.122 879.335 246.659V150.969C879.335 145.511 875.18 141.345 869.734 141.345H857.547C852.101 141.345 847.945 145.511 847.945 150.969V246.659C847.945 252.122 852.101 256.288 857.547 256.288Z" fill="white"/>
<path d="M933.375 256.288H970.212C975.517 256.288 979.81 252.263 979.81 246.659V197.381C979.81 191.777 975.799 187.607 970.357 187.607H958.17C952.864 187.607 948.425 191.487 948.425 197.236V220.799C948.425 226.113 944.122 230.282 938.963 230.282C933.803 230.282 929.647 226.113 929.647 220.799V176.834C929.647 171.516 933.803 167.35 938.963 167.35H970.212C975.517 167.35 979.81 163.326 979.81 157.866V150.969C979.81 145.511 975.663 141.345 970.212 141.345H933.375C913.02 141.345 898.256 156.144 898.256 176.545V221.088C898.256 241.49 913.02 256.288 933.375 256.288Z" fill="white"/>
<path d="M1008.33 256.288H1020.52C1025.96 256.288 1030.12 252.122 1030.12 246.659V229.708C1030.12 224.39 1034.29 220.224 1039.44 220.224C1044.74 220.224 1048.9 224.39 1048.9 229.564V246.659C1048.9 252.122 1053.06 256.288 1058.51 256.288H1070.68C1076.14 256.288 1080.29 252.122 1080.29 246.659V176.545C1080.29 156.144 1065.53 141.345 1045.17 141.345H1033.85C1013.49 141.345 998.735 156.144 998.735 176.545V246.659C998.735 252.122 1002.89 256.288 1008.33 256.288ZM1039.44 201.256C1034.29 201.256 1030.12 197.091 1030.12 191.918V176.834C1030.12 171.516 1034.29 167.35 1039.44 167.35C1044.74 167.35 1048.9 171.516 1048.9 176.834V191.918C1048.9 197.091 1044.74 201.256 1039.44 201.256Z" fill="white"/>
<path d="M458.311 345.725H474.275C485.223 345.725 493.164 337.764 493.164 326.788V289.068C493.164 286.133 490.927 283.891 487.998 283.891H481.445C478.516 283.891 476.279 286.133 476.279 289.068V326.634C476.279 329.493 474.042 331.736 471.189 331.736H458.311C455.382 331.736 453.145 333.978 453.145 336.913V340.547C453.145 343.483 455.382 345.725 458.311 345.725Z" fill="#5A3EF7"/>
<path d="M522.215 345.725H528.306C539.253 345.725 547.199 337.764 547.199 326.788V302.828C547.199 291.852 539.253 283.891 528.306 283.891H522.215C511.263 283.891 503.322 291.852 503.322 302.828V326.788C503.322 337.764 511.263 345.725 522.215 345.725ZM525.22 331.736C522.444 331.736 520.207 329.493 520.207 326.634V302.981C520.207 300.123 522.444 297.88 525.22 297.88C528.073 297.88 530.31 300.123 530.31 302.981V326.634C530.31 329.493 528.073 331.736 525.22 331.736Z" fill="#5A3EF7"/>
<path d="M576.246 345.725H596.06C598.917 345.725 601.231 343.559 601.231 340.547V314.035C601.231 311.019 599.069 308.781 596.141 308.781H589.583C586.73 308.781 584.34 310.866 584.34 313.959V326.634C584.34 329.493 582.027 331.736 579.251 331.736C576.475 331.736 574.238 329.493 574.238 326.634V302.981C574.238 300.123 576.475 297.88 579.251 297.88H596.06C598.917 297.88 601.231 295.714 601.231 292.779V289.068C601.231 286.133 598.994 283.891 596.06 283.891H576.246C565.294 283.891 557.352 291.852 557.352 302.828V326.788C557.352 337.764 565.294 345.725 576.246 345.725Z" fill="#5A3EF7"/>
<path d="M616.549 345.725H623.103C626.035 345.725 628.269 343.483 628.269 340.547V331.425C628.269 328.566 630.506 326.323 633.281 326.323C636.134 326.323 638.371 328.566 638.371 331.348V340.547C638.371 343.483 640.608 345.725 643.537 345.725H650.091C653.024 345.725 655.261 343.483 655.261 340.547V302.828C655.261 291.852 647.315 283.891 636.367 283.891H630.276C619.325 283.891 611.383 291.852 611.383 302.828V340.547C611.383 343.483 613.62 345.725 616.549 345.725ZM633.281 316.12C630.506 316.12 628.269 313.878 628.269 311.1V302.981C628.269 300.123 630.506 297.88 633.281 297.88C636.134 297.88 638.371 300.123 638.371 302.981V311.1C638.371 313.878 636.134 316.12 633.281 316.12Z" fill="#5A3EF7"/>
<path d="M670.579 345.725H690.398C701.345 345.725 709.292 337.764 709.292 326.788V302.828C709.292 291.852 701.345 283.891 690.398 283.891H670.579C667.65 283.891 665.413 286.133 665.413 289.068V340.547C665.413 343.483 667.65 345.725 670.579 345.725ZM687.312 331.736C684.536 331.736 682.299 329.493 682.299 326.634V302.981C682.299 300.123 684.536 297.88 687.312 297.88C690.164 297.88 692.401 300.123 692.401 302.981V326.634C692.401 329.493 690.164 331.736 687.312 331.736Z" fill="#5A3EF7"/>
<path d="M738.338 345.725H744.429C755.376 345.725 763.323 337.764 763.323 326.788V302.828C763.323 291.852 755.376 283.891 744.429 283.891H738.338C727.387 283.891 719.444 291.852 719.444 302.828V326.788C719.444 337.764 727.387 345.725 738.338 345.725ZM741.343 331.736C738.567 331.736 736.33 329.493 736.33 326.634V302.981C736.33 300.123 738.567 297.88 741.343 297.88C744.196 297.88 746.433 300.123 746.433 302.981V326.634C746.433 329.493 744.196 331.736 741.343 331.736Z" fill="#5A3EF7"/>
<path d="M778.641 345.725H785.195C788.128 345.725 790.361 343.483 790.361 340.547V326.558C790.361 323.775 792.598 321.532 795.373 321.532H806.94C809.793 321.532 812.03 323.775 812.03 326.558V340.547C812.03 343.483 814.267 345.725 817.196 345.725H823.75C826.683 345.725 828.92 343.483 828.92 340.547V324.625C828.92 321.843 826.912 319.907 824.136 319.907H823.444C820.668 319.907 818.431 317.669 818.431 314.806C818.431 311.946 820.668 309.708 823.444 309.708H823.597C826.683 309.708 828.92 307.466 828.92 304.373V299.658C828.92 290.537 822.286 283.891 813.189 283.891H778.641C775.712 283.891 773.475 286.133 773.475 289.068V340.547C773.475 343.483 775.712 345.725 778.641 345.725ZM795.373 308.007C792.598 308.007 790.361 305.765 790.361 302.981C790.361 300.123 792.598 297.88 795.373 297.88H806.94C809.793 297.88 812.03 300.123 812.03 302.981C812.03 305.765 809.793 308.007 806.94 308.007H795.373Z" fill="#5A3EF7"/>
<path d="M448.007 345.725H463.971C474.918 345.725 482.861 337.764 482.861 326.788V289.068C482.861 286.133 480.624 283.891 477.695 283.891H471.141C468.212 283.891 465.975 286.133 465.975 289.068V326.634C465.975 329.493 463.738 331.736 460.885 331.736H448.007C445.078 331.736 442.841 333.978 442.841 336.913V340.547C442.841 343.483 445.078 345.725 448.007 345.725Z" fill="#FF66C4"/>
<path d="M511.911 345.725H518.003C528.95 345.725 536.896 337.764 536.896 326.788V302.828C536.896 291.852 528.95 283.891 518.003 283.891H511.911C500.96 283.891 493.017 291.852 493.017 302.828V326.788C493.017 337.764 500.96 345.725 511.911 345.725ZM514.916 331.736C512.14 331.736 509.903 329.493 509.903 326.634V302.981C509.903 300.123 512.14 297.88 514.916 297.88C517.769 297.88 520.006 300.123 520.006 302.981V326.634C520.006 329.493 517.769 331.736 514.916 331.736Z" fill="#FF66C4"/>
<path d="M565.941 345.725H585.756C588.613 345.725 590.926 343.559 590.926 340.547V314.035C590.926 311.019 588.766 308.781 585.837 308.781H579.278C576.426 308.781 574.036 310.866 574.036 313.959V326.634C574.036 329.493 571.723 331.736 568.946 331.736C566.171 331.736 563.934 329.493 563.934 326.634V302.981C563.934 300.123 566.171 297.88 568.946 297.88H585.756C588.613 297.88 590.926 295.714 590.926 292.779V289.068C590.926 286.133 588.689 283.891 585.756 283.891H565.941C554.99 283.891 547.048 291.852 547.048 302.828V326.788C547.048 337.764 554.99 345.725 565.941 345.725Z" fill="#FF66C4"/>
<path d="M606.244 345.725H612.798C615.732 345.725 617.964 343.483 617.964 340.547V331.425C617.964 328.566 620.201 326.323 622.977 326.323C625.83 326.323 628.067 328.566 628.067 331.348V340.547C628.067 343.483 630.304 345.725 633.233 345.725H639.786C642.72 345.725 644.957 343.483 644.957 340.547V302.828C644.957 291.852 637.011 283.891 626.064 283.891H619.972C609.021 283.891 601.078 291.852 601.078 302.828V340.547C601.078 343.483 603.315 345.725 606.244 345.725ZM622.977 316.12C620.201 316.12 617.964 313.878 617.964 311.1V302.981C617.964 300.123 620.201 297.88 622.977 297.88C625.83 297.88 628.067 300.123 628.067 302.981V311.1C628.067 313.878 625.83 316.12 622.977 316.12Z" fill="#FF66C4"/>
<path d="M660.276 345.725H680.094C691.041 345.725 698.987 337.764 698.987 326.788V302.828C698.987 291.852 691.041 283.891 680.094 283.891H660.276C657.347 283.891 655.11 286.133 655.11 289.068V340.547C655.11 343.483 657.347 345.725 660.276 345.725ZM677.009 331.736C674.232 331.736 671.995 329.493 671.995 326.634V302.981C671.995 300.123 674.232 297.88 677.009 297.88C679.861 297.88 682.098 300.123 682.098 302.981V326.634C682.098 329.493 679.861 331.736 677.009 331.736Z" fill="#FF66C4"/>
<path d="M728.034 345.725H734.125C745.072 345.725 753.018 337.764 753.018 326.788V302.828C753.018 291.852 745.072 283.891 734.125 283.891H728.034C717.082 283.891 709.141 291.852 709.141 302.828V326.788C709.141 337.764 717.082 345.725 728.034 345.725ZM731.039 331.736C728.263 331.736 726.026 329.493 726.026 326.634V302.981C726.026 300.123 728.263 297.88 731.039 297.88C733.892 297.88 736.129 300.123 736.129 302.981V326.634C736.129 329.493 733.892 331.736 731.039 331.736Z" fill="#FF66C4"/>
<path d="M768.337 345.725H774.89C777.824 345.725 780.056 343.483 780.056 340.547V326.558C780.056 323.775 782.293 321.532 785.07 321.532H796.637C799.489 321.532 801.726 323.775 801.726 326.558V340.547C801.726 343.483 803.963 345.725 806.892 345.725H813.446C816.379 345.725 818.616 343.483 818.616 340.547V324.625C818.616 321.843 816.608 319.907 813.832 319.907H813.14C810.364 319.907 808.127 317.669 808.127 314.806C808.127 311.946 810.364 309.708 813.14 309.708H813.293C816.379 309.708 818.616 307.466 818.616 304.373V299.658C818.616 290.537 811.981 283.891 802.885 283.891H768.337C765.408 283.891 763.171 286.133 763.171 289.068V340.547C763.171 343.483 765.408 345.725 768.337 345.725ZM785.07 308.007C782.293 308.007 780.056 305.765 780.056 302.981C780.056 300.123 782.293 297.88 785.07 297.88H796.637C799.489 297.88 801.726 300.123 801.726 302.981C801.726 305.765 799.489 308.007 796.637 308.007H785.07Z" fill="#FF66C4"/>
</g>
</g>
<defs>
<clipPath id="clip0_96_1370">
<rect width="1103" height="383" fill="white"/>
</clipPath>
</defs>
</svg>
