<svg width="39" height="40" viewBox="0 0 39 40" fill="none" xmlns="http://www.w3.org/2000/svg">
<g clip-path="url(#clip0_1_1533)">
<path d="M13.7559 20.2559H25.7441C25.9551 20.2559 26.1338 20.1826 26.2803 20.0361C26.4268 19.8896 26.5 19.7109 26.5 19.5C26.5 19.2891 26.4268 19.1104 26.2803 18.9639C26.1338 18.8174 25.9551 18.7441 25.7441 18.7441H13.7559C13.5449 18.7441 13.3662 18.8174 13.2197 18.9639C13.0732 19.1104 13 19.2891 13 19.5C13 19.7109 13.0732 19.8896 13.2197 20.0361C13.3662 20.1826 13.5449 20.2559 13.7559 20.2559ZM13.7559 24C13.5449 24 13.3662 23.9268 13.2197 23.7803C13.0732 23.6338 13 23.4551 13 23.2441C13 23.0449 13.0732 22.8721 13.2197 22.7256C13.3662 22.5791 13.5449 22.5059 13.7559 22.5059H25.7441C25.9551 22.5059 26.1338 22.5791 26.2803 22.7256C26.4268 22.8721 26.5 23.0449 26.5 23.2441C26.5 23.4551 26.4268 23.6338 26.2803 23.7803C26.1338 23.9268 25.9551 24 25.7441 24H13.7559ZM13 15.7559C13 15.5449 13.0732 15.3662 13.2197 15.2197C13.3662 15.0732 13.5449 15 13.7559 15H25.7441C25.9551 15 26.1338 15.0732 26.2803 15.2197C26.4268 15.3662 26.5 15.5449 26.5 15.7559C26.5 15.9551 26.4268 16.1279 26.2803 16.2744C26.1338 16.4209 25.9551 16.4941 25.7441 16.4941H13.7559C13.5449 16.4941 13.3662 16.4209 13.2197 16.2744C13.0732 16.1279 13 15.9551 13 15.7559Z" fill="white"/>
</g>
<defs>
<clipPath id="clip0_1_1533">
<rect width="13" height="11" fill="white" transform="matrix(1 0 0 -1 13 25.5)"/>
</clipPath>
</defs>
</svg>
